<svg
                      id="Capa_1"
                      enableBackground="new 0 0 512 512"
                      height="42"
                      viewBox="0 0 512 512"
                      width="42"
                      xmlns="http://www.w3.org/2000/svg"
                    >
                      <g>
                        <path
                          d="m487.174 382.313h-462.348c-9.569 0-17.326-7.757-17.326-17.326v-297.806c0-9.569 7.757-17.326 17.326-17.326h462.348c9.569 0 17.326 7.757 17.326 17.326v297.806c0 9.569-7.757 17.326-17.326 17.326z"
                          fill="#9dc6fb"
                        />
                        <path
                          d="m487.174 49.855h-32.285c9.569 0 17.326 7.757 17.326 17.326v297.807c0 9.569-7.757 17.326-17.326 17.326h32.285c9.569 0 17.326-7.757 17.326-17.326v-297.807c0-9.569-7.757-17.326-17.326-17.326z"
                          fill="#80b4fb"
                        />
                        <path
                          d="m7.5 121.222h497v45.751h-497z"
                          fill="#407093"
                        />
                        <path
                          d="m472.215 121.222h32.285v45.751h-32.285z"
                          fill="#365e7d"
                        />
                        <ellipse
                          cx="128.365"
                          cy="301.059"
                          fill="#ecbe6b"
                          rx="70.825"
                          ry="33.925"
                        />
                        <path
                          d="m128.365 267.134c-6.479 0-12.747.425-18.709 1.205 30.034 3.932 52.116 17.087 52.116 32.72s-22.082 28.788-52.116 32.719c5.962.78 12.23 1.205 18.709 1.205 39.116 0 70.825-15.189 70.825-33.925 0-18.735-31.709-33.924-70.825-33.924z"
                          fill="#e7a561"
                        />
                        <g>
                          <path
                            d="m283.209 423.622 143.847 2.353c-.726.907 23.878-10.038 23.127-9.152 18.86-22.282 30.24-51.099 30.24-82.578 0-70.636-57.262-127.898-127.898-127.898s-127.898 57.262-127.898 127.898c0 31.479 11.379 60.296 30.24 82.578-.751-.886 29.068 7.706 28.342 6.799z"
                            fill="#8993da"
                          />
                        </g>
                        <path
                          d="m335.541 207.472c62.607 8.308 110.914 61.896 110.914 126.773 0 35.824-14.734 68.201-38.467 91.418l19.067.312c-.726.906 23.872-10.036 23.127-9.152.002-.003.004-.005.007-.008 19.392-22.914 30.233-51.948 30.233-82.57.001-77.127-67.889-136.99-144.881-126.773z"
                          fill="#707dd3"
                        />
                        <g>
                          <path
                            d="m352.524 462.144c40.409 0 76.435-18.746 99.874-48.01h-199.747c23.438 29.264 59.464 48.01 99.873 48.01z"
                            fill="#d3effb"
                          />
                        </g>
                        <path
                          d="m418.431 414.134c-20.093 25.087-49.438 42.439-82.865 46.882 5.55.736 11.208 1.128 16.959 1.128 40.409 0 76.435-18.746 99.874-48.01z"
                          fill="#b1e4f9"
                        />
                        <g>
                          <path d="m487.174 42.355h-462.348c-13.689 0-24.826 11.137-24.826 24.826v297.807c0 13.688 11.137 24.825 24.826 24.825h50.999c4.142 0 7.5-3.357 7.5-7.5s-3.358-7.5-7.5-7.5h-50.999c-5.418 0-9.826-4.407-9.826-9.825v-190.516h482v190.516c0 5.418-4.407 9.825-9.825 9.825h-5.463c4.032-12.813 6.211-26.44 6.211-40.567 0-19.238-3.959-37.835-11.766-55.272-1.692-3.78-6.131-5.472-9.91-3.781-3.781 1.693-5.474 6.13-3.781 9.91 6.938 15.498 10.457 32.032 10.457 49.144 0 27.15-9.037 52.227-24.255 72.389h-192.286c-15.219-20.162-24.256-45.239-24.256-72.389 0-66.388 54.011-120.398 120.399-120.398 37.527 0 72.247 17.047 95.257 46.769 2.538 3.275 7.247 3.873 10.521 1.34 3.275-2.536 3.875-7.246 1.34-10.521-25.872-33.42-64.915-52.587-107.118-52.587-74.659 0-135.399 60.739-135.399 135.398 0 14.127 2.179 27.754 6.211 40.567h-120.681c-4.142 0-7.5 3.357-7.5 7.5s3.358 7.5 7.5 7.5h126.404c21.299 47.138 68.741 79.831 123.465 79.831 54.698 0 102.155-32.673 123.463-79.831h11.186c13.688 0 24.825-11.137 24.825-24.825v-297.809c.001-13.689-11.136-24.826-24.825-24.826zm-217.381 379.28h165.463c-21.588 20.448-50.719 33.01-82.731 33.01s-61.143-12.562-82.732-33.01zm-254.793-262.163v-30.751h376.135c4.143 0 7.5-3.357 7.5-7.5s-3.357-7.5-7.5-7.5h-376.135v-46.54c0-5.418 4.408-9.826 9.826-9.826h462.349c5.418 0 9.825 4.408 9.825 9.826v46.54h-78.033c-4.143 0-7.5 3.357-7.5 7.5s3.357 7.5 7.5 7.5h78.033v30.751z" />
                          <path d="m181.686 331.812c16.125-7.724 25.004-18.646 25.004-30.753s-8.88-23.029-25.004-30.753c-14.368-6.882-33.305-10.672-53.321-10.672s-38.953 3.79-53.321 10.672c-16.125 7.724-25.004 18.646-25.004 30.753s8.88 23.029 25.004 30.753c14.368 6.882 33.304 10.672 53.321 10.672s38.953-3.79 53.321-10.672zm-116.646-30.753c0-5.929 6.008-12.207 16.484-17.225 12.386-5.933 29.021-9.2 46.841-9.2s34.455 3.268 46.841 9.2c10.476 5.019 16.484 11.296 16.484 17.225s-6.008 12.206-16.484 17.225c-12.386 5.933-29.021 9.2-46.841 9.2s-34.455-3.268-46.841-9.2c-10.476-5.018-16.484-11.296-16.484-17.225z" />
                          <path d="m301.788 309.721c2.912 0 5.718.856 8.115 2.476 3.431 2.318 8.095 1.417 10.413-2.015 2.319-3.432 1.417-8.095-2.015-10.413-4.887-3.303-10.597-5.048-16.514-5.048-16.28 0-29.524 13.244-29.524 29.524s13.244 29.524 29.524 29.524c6.562 0 12.468-2.169 17.074-6.271.901-.802 1.759-1.686 2.548-2.628 2.662-3.173 2.247-7.903-.927-10.565-3.172-2.662-7.903-2.247-10.565.927-.323.385-.669.742-1.029 1.062-1.844 1.643-4.233 2.475-7.101 2.475-8.009 0-14.524-6.516-14.524-14.524s6.516-14.524 14.525-14.524z" />
                          <path d="m362.778 299.938-8.342 25.109-8.776-25.285c-1.357-3.914-5.634-5.99-9.544-4.626-3.913 1.357-5.984 5.631-4.626 9.544l15.077 43.439c1.203 3.386 4.415 5.65 8.004 5.65.019 0 .038 0 .058-.001 3.612-.023 6.821-2.338 8.002-5.81l14.382-43.293c1.307-3.931-.822-8.176-4.753-9.481-3.927-1.307-8.177.822-9.482 4.754z" />
                          <path d="m418.168 299.938-8.342 25.108-8.777-25.284c-1.357-3.914-5.633-5.99-9.544-4.626-3.913 1.358-5.984 5.631-4.626 9.544l15.078 43.439c1.203 3.386 4.414 5.65 8.003 5.65.02 0 .039 0 .058-.001 3.612-.023 6.821-2.338 8.002-5.81l14.383-43.293c1.307-3.931-.821-8.176-4.753-9.481-3.927-1.307-8.176.822-9.482 4.754z" />
                        </g>
                      </g>
                    </svg>