<svg height="35pt" viewBox="-64 0 512 512.001" width="35pt" xmlns="http://www.w3.org/2000/svg"><path d="m126.199219 343.972656c0-5.035156 4.300781-8.078125 11.855469-8.078125 8.8125 0 11.226562 3.984375 14.476562 3.984375 3.777344 0 5.457031-4.824218 5.457031-7.238281 0-6.925781-13.746093-8.394531-19.933593-8.394531-12.066407 0-25.496094 5.351562-25.496094 20.984375 0 24.867187 33.679687 20.039062 33.679687 35.777343 0 6.296876-5.457031 9.128907-11.75 9.128907-10.703125 0-13.535156-8.078125-17.835937-8.078125-3.253906 0-5.980469 4.40625-5.980469 7.34375 0 6.085937 10.492187 13.007812 24.234375 13.007812 14.480469 0 24.972656-7.761718 24.972656-22.765625 0-27.171875-33.679687-22.664062-33.679687-35.671875zm0 0"/><path d="m187.679688 343.972656c0-5.035156 4.300781-8.078125 11.855468-8.078125 8.8125 0 11.226563 3.984375 14.476563 3.984375 3.777343 0 5.457031-4.824218 5.457031-7.238281 0-6.925781-13.746094-8.394531-19.933594-8.394531-12.066406 0-25.496094 5.351562-25.496094 20.984375 0 24.867187 33.679688 20.039062 33.679688 35.777343 0 6.296876-5.457031 9.128907-11.75 9.128907-10.703125 0-13.535156-8.078125-17.835938-8.078125-3.253906 0-5.980468 4.40625-5.980468 7.34375 0 6.085937 10.492187 13.007812 24.234375 13.007812 14.480469 0 24.972656-7.761718 24.972656-22.765625 0-27.171875-33.679687-22.664062-33.679687-35.671875zm0 0"/><path d="m276.648438 389.507812h-25.601563v-60.539062c0-2.9375-3.460937-4.195312-6.820313-4.195312-3.460937 0-6.820312 1.257812-6.820312 4.195312v68.195312c0 2.835938 2.9375 4.304688 5.980469 4.304688h33.261719c2.726562 0 4.089843-3.042969 4.089843-5.980469 0-3.042969-1.363281-5.980469-4.089843-5.980469zm0 0"/><path d="m360.226562 223.40625h-10.125v-65.46875c0-87.085938-70.847656-157.9375-157.9375-157.9375-87.085937 0-157.9375 70.851562-157.9375 157.9375v65.46875h-10.121093c-13.292969 0-24.105469 10.8125-24.105469 24.101562v240.390626c0 13.289062 10.8125 24.101562 24.105469 24.101562h336.121093c13.289063 0 24.105469-10.8125 24.105469-24.101562v-240.390626c0-13.289062-10.816406-24.101562-24.105469-24.101562zm9.105469 130.769531h-31.355469v-28.167969h31.355469zm-31.355469 15h31.355469v28.171875h-31.355469zm-288.75-211.238281c0-78.816406 64.121094-142.9375 142.9375-142.9375 78.816407 0 142.9375 64.121094 142.9375 142.9375v65.46875h-28.511718v-65.46875c0-63.09375-51.332032-114.421875-114.425782-114.421875-63.089843 0-114.421874 51.328125-114.421874 114.421875v65.46875h-28.515626zm242.363282 65.46875h-198.847656v-65.46875c0-54.820312 44.601562-99.421875 99.421874-99.421875 54.824219 0 99.425782 44.601563 99.425782 99.421875zm-276.589844 145.769531h31.351562v28.171875h-31.351562zm31.351562-15h-31.351562v-28.167969h31.351562zm313.875 142.824219h-336.121093c-5.019531 0-9.105469-4.085938-9.105469-9.105469v-75.550781h31.351562v11.792969c0 8.730469 7.105469 15.835937 15.835938 15.835937h189.0625c4.144531 0 7.5-3.355468 7.5-7.5 0-4.144531-3.355469-7.5-7.5-7.5h-189.0625c-.460938 0-.835938-.375-.835938-.835937v-120.085938c0-.460937.375-.835937.835938-.835937h35.976562c4.140626 0 7.5-3.355469 7.5-7.5 0-4.144532-3.359374-7.5-7.5-7.5h-35.976562c-8.730469 0-15.835938 7.105468-15.835938 15.835937v6.957031h-31.351562v-63.5c0-5.019531 4.085938-9.101562 9.105469-9.101562h336.121093c5.019532 0 9.105469 4.082031 9.105469 9.101562v63.5h-31.355469v-6.957031c0-8.730469-7.101562-15.835937-15.835937-15.835937h-189.0625c-4.140625 0-7.5 3.355468-7.5 7.5 0 4.144531 3.359375 7.5 7.5 7.5h189.0625c.460937 0 .835937.375.835937.835937v120.089844c0 .457031-.375.832031-.835937.832031h-35.023437c-4.140626 0-7.5 3.359375-7.5 7.5 0 4.144532 3.359374 7.5 7.5 7.5h35.023437c8.734375 0 15.835937-7.101562 15.835937-15.832031v-11.792969h31.355469v75.550782c0 5.015624-4.085937 9.101562-9.105469 9.101562zm0 0"/></svg>