<?xml version="1.0" encoding="utf-8"?>
<!-- Generator: Adobe Illustrator 25.2.3, SVG Export Plug-In . SVG Version: 6.00 Build 0)  -->
<svg version="1.1" id="Layer_1" xmlns="http://www.w3.org/2000/svg" xmlns:xlink="http://www.w3.org/1999/xlink" x="0px" y="0px"
	 viewBox="0 0 1200 800" style="enable-background:new 0 0 1200 800;" xml:space="preserve">
<style type="text/css">
	.st0{fill:#016FD0;}
	.st1{fill:#FFFFFF;}
</style>
<path class="st0" d="M239.5,133.3h719.1v295.3l-35.6,55.6l35.6,49.5v132.9H239.5V393.6l22.2-25.6l-22.2-24.5V133.3z"/>
<path class="st1" d="M379.1,541.5V428.6h119.5l12.8,16.7l13.3-16.7h433.9v105.1c0,0-11.3,7.7-24.5,7.8H693.9l-14.5-17.8v17.8h-47.4
	v-30.4c0,0-6.5,4.2-20.5,4.2h-16.1v26.1h-71.7l-12.8-17.1l-13,17.1L379.1,541.5z M239.5,343.5l27-62.8h46.6l15.3,35.2v-35.2h58
	l9.1,25.4l8.8-25.4h260.1v12.8c0,0,13.7-12.8,36.2-12.8L785,281l15,34.7v-35h48.5l13.3,20v-20h48.9v112.9h-48.9l-12.8-20v20h-71.3
	l-7.2-17.8h-19.2l-7,17.8h-48.3c-19.3,0-31.7-12.5-31.7-12.5v12.5h-72.9l-14.5-17.8v17.8H306.2l-7.2-17.8H280l-7.1,17.8h-33.3V343.5
	z"/>
<path class="st0" d="M276,294.6l-36.4,84.5h23.7l6.7-16.9h39l6.7,16.9h24.2l-36.3-84.5H276z M289.5,314.3l11.9,29.6h-23.8
	L289.5,314.3z M342.4,379.1v-84.5l33.6,0.1l19.6,54.5l19.1-54.6h33.4v84.5H427v-62.3l-22.4,62.3H386l-22.5-62.3v62.3H342.4z
	 M462.6,379.1v-84.5h69v18.9h-47.6V328h46.5v17.8h-46.5v15h47.6v18.4L462.6,379.1z M543.8,294.6v84.5h21.1v-30h8.9l25.3,30H625
	L597.2,348c11.4-1,23.2-10.8,23.2-26c0-17.8-14-27.4-29.5-27.4H543.8z M564.9,313.5h24.2c5.8,0,10,4.5,10,8.9c0,5.6-5.5,8.9-9.7,8.9
	h-24.5V313.5z M650.6,379.1H629v-84.5h21.6V379.1z M701.7,379.1h-4.7c-22.5,0-36.2-17.8-36.2-41.9c0-24.8,13.5-42.6,42-42.6h23.4v20
	H702c-11.6,0-19.7,9-19.7,22.8c0,16.4,9.3,23.2,22.8,23.2h5.6L701.7,379.1z M747.7,294.6l-36.4,84.5H735l6.7-16.9h39l6.7,16.9h24.2
	l-36.3-84.5H747.7z M761.2,314.3l11.9,29.6h-23.8L761.2,314.3z M814.1,379.1v-84.5h26.9l34.3,53.1v-53.1h21.1v84.5h-26l-35.2-54.5
	v54.5L814.1,379.1z M393.6,527.1v-84.5h69v18.9H415v14.5h46.5v17.8H415v15h47.6v18.4L393.6,527.1z M731.5,527.1v-84.5h69v18.9h-47.6
	v14.5h46.3v17.8h-46.3v15h47.6v18.4L731.5,527.1z M465.2,527.1l33.6-41.7l-34.4-42.8h26.6l20.5,26.5l20.5-26.5h25.6l-33.9,42.3
	l33.6,42.3h-26.6l-19.9-26l-19.4,26H465.2z M559.9,442.6v84.5h21.7v-26.7h22.2c18.8,0,33.1-10,33.1-29.4c0-16.1-11.2-28.4-30.3-28.4
	H559.9z M581.6,461.7H605c6.1,0,10.4,3.7,10.4,9.7c0,5.6-4.3,9.7-10.5,9.7h-23.4L581.6,461.7z M646.1,442.5v84.5h21.1v-30h8.9
	l25.3,30h25.8l-27.8-31.1c11.4-1,23.2-10.8,23.2-26c0-17.8-14-27.4-29.5-27.4L646.1,442.5z M667.2,461.5h24.2c5.8,0,10,4.5,10,8.9
	c0,5.6-5.5,8.9-9.7,8.9h-24.5V461.5z M810.3,527.1v-18.4h42.3c6.3,0,9-3.4,9-7.1c0-3.6-2.7-7.1-9-7.1h-19.1
	c-16.6,0-25.9-10.1-25.9-25.3c0-13.6,8.5-26.6,33.2-26.6h41.2l-8.9,19h-35.6c-6.8,0-8.9,3.6-8.9,7c0,3.5,2.6,7.4,7.8,7.4h20
	c18.5,0,26.6,10.5,26.6,24.3c0,14.8-9,26.9-27.6,26.9H810.3z M887.8,527.1v-18.4h42.3c6.3,0,9-3.4,9-7.1c0-3.6-2.7-7.1-9-7.1H911
	c-16.6,0-25.9-10.1-25.9-25.3c0-13.6,8.5-26.6,33.2-26.6h41.2l-8.9,19H915c-6.8,0-8.9,3.6-8.9,7c0,3.5,2.6,7.4,7.8,7.4h20
	c18.5,0,26.6,10.5,26.6,24.3c0,14.8-9,26.9-27.6,26.9H887.8z"/>
</svg>
