<?xml version="1.0" encoding="utf-8"?>
<!-- Generator: Adobe Illustrator 25.2.3, SVG Export Plug-In . SVG Version: 6.00 Build 0)  -->
<svg version="1.1" id="Layer_1" xmlns="http://www.w3.org/2000/svg" xmlns:xlink="http://www.w3.org/1999/xlink" x="0px" y="0px"
	 viewBox="0 0 1200 800" style="enable-background:new 0 0 1200 800;" xml:space="preserve">
<path d="M417.5,312.4c-6.8,8-17.5,14.3-28.3,13.4c-1.4-10.8,3.9-22.3,10.1-29.3c6.8-8.2,18.5-14,28.1-14.5
	C428.6,293.2,424.1,304.2,417.5,312.4 M427.3,327.9c-15.6-0.9-29,8.9-36.4,8.9c-7.5,0-18.8-8.4-31.2-8.2c-16.1,0.2-31,9.3-39.2,23.8
	c-16.9,29-4.4,71.9,11.9,95.5c8,11.7,17.5,24.5,30.1,24.1c11.9-0.5,16.6-7.7,31-7.7c14.5,0,18.7,7.7,31.2,7.5
	c13.1-0.2,21.2-11.7,29.2-23.3c9.1-13.3,12.8-26.2,13.1-26.8c-0.2-0.2-25.2-9.8-25.4-38.5c-0.2-24.1,19.7-35.5,20.6-36.2
	C450.9,330.1,433.4,328.3,427.3,327.9 M517.5,295.3v175.1h27.2v-59.9h37.6c34.3,0,58.6-23.6,58.6-57.7s-23.7-57.5-57.7-57.5
	L517.5,295.3z M544.7,318.2H576c23.6,0,37.1,12.6,37.1,34.7s-13.5,34.8-37.2,34.8h-31.2V318.2z M690.5,471.8c17,0,33-8.6,40.1-22.3
	h0.6v21h25.2v-87.2c0-25.3-20.2-41.6-51.3-41.6c-28.9,0-50.2,16.5-51,39.2h24.5c2-10.8,12-17.9,25.7-17.9c16.6,0,25.9,7.7,25.9,22
	v9.6l-34,2c-31.6,1.9-48.6,14.8-48.6,37.3C647.6,456.8,665.3,471.8,690.5,471.8z M697.8,451c-14.5,0-23.7-6.9-23.7-17.6
	c0-11,8.9-17.4,25.9-18.4l30.3-1.9v9.9C730.2,439.3,716.2,451,697.8,451z M790,518.1c26.5,0,39-10.1,49.9-40.8l47.7-133.9H860
	l-32.1,103.5h-0.6l-32.1-103.5h-28.4L813,470.9l-2.4,7.7c-4.2,13.1-10.9,18.2-22.9,18.2c-2.1,0-6.3-0.2-8-0.5v21
	C781.2,517.9,787.9,518.1,790,518.1L790,518.1z"/>
</svg>
