<?xml version="1.0" encoding="utf-8"?>
<!-- Generator: Adobe Illustrator 25.2.3, SVG Export Plug-In . SVG Version: 6.00 Build 0)  -->
<svg version="1.1" id="Layer_1" xmlns="http://www.w3.org/2000/svg" xmlns:xlink="http://www.w3.org/1999/xlink" x="0px" y="0px"
	 viewBox="0 0 628 416.2" style="enable-background:new 0 0 628 416.2;" xml:space="preserve">
<style type="text/css">
	.st0{fill:none;stroke:#FFFFFF;stroke-miterlimit:10;}
	.st1{stroke:#000000;stroke-miterlimit:10;}
	.st2{fill:#FFFFFF;}
	.st3{font-family:'MyriadPro-Regular';}
	.st4{font-size:13.5615px;}
	.st5{clip-path:url(#SVGID_2_);}
	.st6{fill:none;stroke:#000000;stroke-width:2;stroke-miterlimit:10;}
</style>
<path class="st0" d="M20.2,1.6h587.7c10.3,0,18.6,8.3,18.6,18.6v375.9c0,10.3-8.3,18.6-18.6,18.6H20.2c-10.3,0-18.6-8.3-18.6-18.6
	V20.2C1.6,9.9,9.9,1.6,20.2,1.6z"/>
<path class="st1" d="M607.8,3.1c9.4,0,17,7.6,17,17V396c0,9.4-7.6,17-17,17H20.2c-9.4,0-17-7.6-17-17V20.2c0-9.4,7.6-17,17-17h587.6
	 M607.8,0H20.2C9,0,0,9,0,20.2v375.9c0,11.1,9,20.2,20.2,20.2h587.7c11.1,0,20.2-9,20.2-20.2V20.2C628,9,619,0,607.8,0z"/>
<path class="st2" d="M489.6,30.8h85.5c6.5,0,11.7,5.2,11.7,11.7v33.9c0,6.5-5.2,11.7-11.7,11.7h-85.5c-6.5,0-11.7-5.2-11.7-11.7
	V42.5C477.9,36,483.1,30.8,489.6,30.8z"/>
<path d="M575.1,31.3c6.2,0,11.2,5,11.2,11.2v33.9c0,6.2-5,11.2-11.2,11.2h-85.5c-6.2,0-11.2-5-11.2-11.2V42.5
	c0-6.2,5-11.2,11.2-11.2H575.1 M575.1,30.3h-85.5c-6.8,0-12.2,5.5-12.2,12.2l0,0v33.9c0,6.8,5.5,12.2,12.2,12.2l0,0h85.5
	c6.8,0,12.2-5.5,12.2-12.2l0,0V42.5C587.3,35.7,581.8,30.3,575.1,30.3L575.1,30.3z"/>
<text transform="matrix(1 0 0 1 437.583 341)" class="st3 st4">EX</text>
<text transform="matrix(1 0 0 1 452 341)" class="st3 st4">P</text>
<text transform="matrix(1 0 0 1 457.3203 341)" class="st3 st4">. </text>
<text transform="matrix(1 0 0 1 462.9951 341)" class="st3 st4">D</text>
<text transform="matrix(1 0 0 1 471.8408 341)" class="st3 st4">A</text>
<text transform="matrix(1 0 0 1 479.0918 341)" class="st3 st4">TE</text>
<g>
	<g>
		<g>
			<g>
				<g>
					<g>
						<defs>
							<path id="SVGID_1_" d="M51.9,120.8h95.5c6.8,0,12.2,5.5,12.2,12.2v62.1c0,6.8-5.5,12.2-12.2,12.2H51.9
								c-6.8,0-12.2-5.5-12.2-12.2V133C39.6,126.3,45.1,120.8,51.9,120.8z"/>
						</defs>
						<clipPath id="SVGID_2_">
							<use xlink:href="#SVGID_1_"  style="overflow:visible;"/>
						</clipPath>
						<g class="st5">
							<path class="st2" d="M-14.9,72.3h95.5c6.5,0,11.7,5.2,11.7,11.7v62.1c0,6.5-5.2,11.7-11.7,11.7h-95.5
								c-6.5,0-11.7-5.2-11.7-11.7V84C-26.6,77.6-21.4,72.3-14.9,72.3z"/>
							<path d="M80.6,72.8c6.2,0,11.2,5,11.2,11.2v62.1c0,6.2-5,11.2-11.2,11.2h-95.5c-6.2,0-11.2-5-11.2-11.2V84
								c0-6.2,5-11.2,11.2-11.2H80.6 M80.6,71.8h-95.5c-6.8,0-12.2,5.5-12.2,12.2l0,0v62.1c0,6.8,5.5,12.2,12.2,12.2l0,0h95.5
								c6.8,0,12.2-5.5,12.2-12.2l0,0V84C92.8,77.3,87.4,71.8,80.6,71.8L80.6,71.8z"/>
							<path class="st2" d="M117.6,72.3h95.5c6.5,0,11.7,5.2,11.7,11.7v62.1c0,6.5-5.2,11.7-11.7,11.7h-95.5
								c-6.5,0-11.7-5.2-11.7-11.7V84C105.9,77.6,111.1,72.3,117.6,72.3z"/>
							<path d="M213.1,72.8c6.2,0,11.2,5,11.2,11.2v62.1c0,6.2-5,11.2-11.2,11.2h-95.5c-6.2,0-11.2-5-11.2-11.2V84
								c0-6.2,5-11.2,11.2-11.2H213.1 M213.1,71.8h-95.5c-6.8,0-12.2,5.5-12.2,12.2l0,0v62.1c0,6.8,5.5,12.2,12.2,12.2l0,0h95.5
								c6.8,0,12.2-5.5,12.2-12.2l0,0V84C225.3,77.3,219.9,71.8,213.1,71.8L213.1,71.8z"/>
							<path class="st2" d="M-14.9,171.4h95.5c6.5,0,11.7,5.2,11.7,11.7v62.1c0,6.5-5.2,11.7-11.7,11.7h-95.5
								c-6.5,0-11.7-5.2-11.7-11.7v-62.1C-26.6,176.7-21.4,171.4-14.9,171.4z"/>
							<path d="M80.6,171.9c6.2,0,11.2,5,11.2,11.2v62.1c0,6.2-5,11.2-11.2,11.2h-95.5c-6.2,0-11.2-5-11.2-11.2v-62.1
								c0-6.2,5-11.2,11.2-11.2L80.6,171.9 M80.6,170.9h-95.5c-6.8,0-12.2,5.5-12.2,12.2l0,0v62.1c0,6.8,5.5,12.2,12.2,12.2l0,0
								h95.5c6.8,0,12.2-5.5,12.2-12.2l0,0v-62.1C92.8,176.4,87.4,170.9,80.6,170.9L80.6,170.9z"/>
							<path class="st2" d="M117.6,171.4h95.5c6.5,0,11.7,5.2,11.7,11.7v62.1c0,6.5-5.2,11.7-11.7,11.7h-95.5
								c-6.5,0-11.7-5.2-11.7-11.7v-62.1C105.9,176.7,111.1,171.4,117.6,171.4z"/>
							<path d="M213.1,171.9c6.2,0,11.2,5,11.2,11.2v62.1c0,6.2-5,11.2-11.2,11.2h-95.5c-6.2,0-11.2-5-11.2-11.2v-62.1
								c0-6.2,5-11.2,11.2-11.2L213.1,171.9 M213.1,170.9h-95.5c-6.8,0-12.2,5.5-12.2,12.2l0,0v62.1c0,6.8,5.5,12.2,12.2,12.2l0,0
								h95.5c6.8,0,12.2-5.5,12.2-12.2l0,0v-62.1C225.3,176.4,219.9,170.9,213.1,170.9L213.1,170.9z"/>
						</g>
					</g>
				</g>
			</g>
		</g>
	</g>
</g>
<path class="st6" d="M51.9,120.8h95.5c6.8,0,12.2,5.5,12.2,12.2v62.1c0,6.8-5.5,12.2-12.2,12.2H51.9c-6.8,0-12.2-5.5-12.2-12.2V133
	C39.6,126.3,45.1,120.8,51.9,120.8z"/>
</svg>
