<?xml version="1.0" encoding="utf-8"?>
<!-- Generator: Adobe Illustrator 25.2.3, SVG Export Plug-In . SVG Version: 6.00 Build 0)  -->
<svg version="1.1" id="Layer_1" xmlns="http://www.w3.org/2000/svg" xmlns:xlink="http://www.w3.org/1999/xlink" x="0px" y="0px"
	 viewBox="0 0 628 416.2" style="enable-background:new 0 0 628 416.2;" xml:space="preserve">
<style type="text/css">
	.st0{fill:none;stroke:#FFFFFF;stroke-miterlimit:10;}
	.st1{stroke:#000000;stroke-miterlimit:10;}
	.st2{fill:#FFFFFF;}
	.st3{fill:#FFFFFF;stroke:#000000;stroke-miterlimit:10;}
</style>
<path class="st0" d="M20.2,1.6h587.7c10.3,0,18.6,8.3,18.6,18.6v375.9c0,10.3-8.3,18.6-18.6,18.6H20.2c-10.3,0-18.6-8.3-18.6-18.6
	V20.2C1.6,9.9,9.9,1.6,20.2,1.6z"/>
<path class="st1" d="M607.8,3.1c9.4,0,17,7.6,17,17V396c0,9.4-7.6,17-17,17H20.2c-9.4,0-17-7.6-17-17V20.2c0-9.4,7.6-17,17-17h587.6
	 M607.8,0H20.2C9,0,0,9,0,20.2v375.9c0,11.1,9,20.2,20.2,20.2h587.7c11.1,0,20.2-9,20.2-20.2V20.2C628,9,619,0,607.8,0z"/>
<path class="st2" d="M489.6,30.8h85.5c6.5,0,11.7,5.2,11.7,11.7v33.9c0,6.5-5.2,11.7-11.7,11.7h-85.5c-6.5,0-11.7-5.2-11.7-11.7
	V42.5C477.9,36,483.1,30.8,489.6,30.8z"/>
<rect x="3.9" y="65" class="st3" width="620.1" height="92"/>
<rect x="39.1" y="207.2" class="st3" width="110.6" height="52.7"/>
</svg>
