<?xml version="1.0"?>
<svg xmlns="http://www.w3.org/2000/svg" viewBox="0 0 192 192" width="512" height="512"><g id="_04-ccv" data-name="04-ccv"><path d="M176,8H16A16.019,16.019,0,0,0,0,24V128a16.019,16.019,0,0,0,16,16H51.19a55.876,55.876,0,0,0,57.62,0h7.876l37.657,37.657,11.314-11.314L139.314,144H176a16.019,16.019,0,0,0,16-16V24A16.019,16.019,0,0,0,176,8Zm0,16V40H16V24Zm0,48H130.586a56.251,56.251,0,0,0-11.448-16H176ZM29.414,72H16V56H40.862A56.251,56.251,0,0,0,29.414,72ZM16,88h8.581a55.735,55.735,0,0,0,9.5,40H16Zm24,8a40,40,0,1,1,40,40A40.045,40.045,0,0,1,40,96Zm85.917,32a55.735,55.735,0,0,0,9.5-40H176v40Z"/><circle cx="80" cy="96" r="8"/><circle cx="104" cy="96" r="8"/><circle cx="56" cy="96" r="8"/></g></svg>
