<?xml version="1.0" encoding="iso-8859-1"?>
<!-- Generator: Adobe Illustrator 19.0.0, SVG Export Plug-In . SVG Version: 6.00 Build 0)  -->
<svg version="1.1" id="Layer_1" xmlns="http://www.w3.org/2000/svg" xmlns:xlink="http://www.w3.org/1999/xlink" x="0px" y="0px"
	 viewBox="0 0 508 508" style="enable-background:new 0 0 508 508;" xml:space="preserve">
<circle style="fill:#84DBFF;" cx="254" cy="254" r="254"/>
<path style="fill:#E6E9EE;" d="M418.6,127.9v156.6c0,2.8-0.9,5.4-2.5,7.5c-1.5,2-3.7,3.5-6.1,4.3c-1.2,0.4-2.5,0.6-3.8,0.6H137.3
	c-6.9,0-12.5-5.6-12.5-12.5V127.9c0-6.9,5.6-12.5,12.5-12.5h268.8C413,115.4,418.6,121,418.6,127.9z"/>
<rect x="124.8" y="146.8" style="fill:#2B3B4E;" width="293.8" height="40.7"/>
<g>
	<path style="fill:#324A5E;" d="M380,392.6H92.5c-1.7,0-3.1-1.4-3.1-3.1V214.2c0-1.7,1.4-3.1,3.1-3.1H380c1.7,0,3.1,1.4,3.1,3.1
		v175.2C383.2,391.2,381.8,392.6,380,392.6z"/>
	<path style="fill:#324A5E;" d="M383.2,223.6v156.6c0,2.8-0.9,5.4-2.5,7.5c-1.5,2-3.7,3.5-6.1,4.3c-1.2,0.4-2.5,0.6-3.8,0.6H101.9
		c-6.9,0-12.5-5.6-12.5-12.5V223.6c0-6.9,5.6-12.5,12.5-12.5h268.8C377.6,211.1,383.2,216.7,383.2,223.6z"/>
</g>
<path style="fill:#FFD05B;" d="M165.5,310.8h-51.6c-0.4,0-0.8-0.3-0.8-0.8v-36c0-0.4,0.3-0.8,0.8-0.8h51.6c0.4,0,0.8,0.3,0.8,0.8v36
	C166.3,310.5,166,310.8,165.5,310.8z"/>
<polygon style="fill:#F9B54C;" points="153.8,285.2 153.8,291.7 166.3,291.7 166.3,293.6 153.8,293.6 153.8,301.7 166.3,301.7 
	166.3,303.6 153.8,303.6 153.8,310.8 151.9,310.8 151.9,303.6 127.5,303.6 127.5,310.8 125.6,310.8 125.6,303.6 113.1,303.6 
	113.1,301.7 125.6,301.7 125.6,289.4 113.1,289.4 113.1,287.5 125.6,287.5 125.6,281 113.1,281 113.1,279.1 125.6,279.1 
	125.6,273.3 127.5,273.3 127.5,301.7 151.9,301.7 151.9,273.3 153.8,273.3 153.8,283.3 166.3,283.3 166.3,285.2 "/>
<g>
	<path style="fill:#2B3B4E;" d="M383.2,253.5v10.1c-0.1,0-0.1,0-0.2,0c-2.2,0.8-2.5,3.7-2.5,6c0,2.2,0.1,4.3,0.1,6.5
		c0,1,0,2.1-0.6,2.9c-1.4,1.7-4.1,0.7-6-0.4c-0.5,1.8-3.3,1.7-4.8,0.5c-3.1-2.5-3.2-7.9-0.2-10.4c1-0.9,2.4-1.6,2.7-2.9
		c0.2-1-0.4-2.2,0.2-3c0.4-0.6,1.1-0.7,1.8-0.9c4.2-1.1,7.4-5,8.2-9.3C382.4,252.8,382.8,253.2,383.2,253.5z"/>
	<path style="fill:#2B3B4E;" d="M378.6,284.2c1.5-0.2,3.2-0.5,4.6-1.3v22c-0.1-0.1-0.2-0.3-0.2-0.4c-2.1-3.3-5.8-5.6-9.6-5.4
		c-3.8,0.1-7.6,3.1-8.1,6.9c-0.3,2.3,0.1,5.4-2.1,6.1c-0.7,0.3-1.5,0.1-2.2,0c-2.5-0.5-5.2-1.1-7.1-2.8c-1.9-1.7-3-4.7-1.6-6.9
		c3.6-0.8,7.1-1.8,10.4-3.3c-1-1.5-2-3.1-3.1-4.6c-0.4-0.6-0.8-1.2-0.7-1.8c0.2-2.3,4.5-1.4,5.7-3.5c0.5-0.8,0.3-2,1-2.7
		c0.5-0.5,1.2-0.7,2-0.8C371.2,285.4,374.9,284.8,378.6,284.2z"/>
	<path style="fill:#2B3B4E;" d="M383.2,318.2v62c0,2.8-0.9,5.4-2.5,7.5c-2,1.5-4,3-6.1,4.3c-1.2,0.4-2.5,0.6-3.8,0.6h-1.3
		c0.7-5.1,2-10,3.9-14.8c0.3-0.8,0.6-1.6,0.3-2.4c-0.3-0.6-0.8-1-1.3-1.4c-4.8-3.9-5.5-10.7-6.9-16.7c-0.2-0.9-0.5-1.9-1.2-2.6
		c-0.5-0.4-1.1-0.7-1.8-0.9c-3.4-1-7.1-1.3-10.5-2.4s-6.8-3.2-8.1-6.6c-1.6-4.5,1-9.3,1.9-14c0.4-2,0.5-4,0.2-6
		c-0.1-1.2-0.4-2.4,0.3-3.4c0.4-0.6,1-1,1.6-1.3c6.2-3.4,12.6-6.9,19.7-7.7c2.2-0.2,4.6-0.1,6.4,1.2c1.3,1,2.1,2.6,3.4,3.5
		c1.4,1,3.3,1.1,5,1.1C382.6,318.2,382.9,318.2,383.2,318.2z"/>
	<path style="fill:#2B3B4E;" d="M340.6,248.9c-1,1.5-2.4,2.8-3.2,4.4c-0.6,1.3-0.9,2.7-1.6,3.9c-2.7,4.5-10.7,4.6-11.6,9.8
		c-0.2,1.2,0,2.4-0.5,3.5c-0.6,1.2-2.2,1.8-3.5,1.6c-3.9-0.5-5.6-5.3-5.4-9.2c0.1-3.9,1.1-8.2-0.8-11.6c-1.8-3.2-5.5-4.6-8.5-6.5
		c-2.5-1.6-4.9-4.3-4.9-7.1c8.6-2.8,17.7-4.4,27.2-4.4c5.4,0,10.6,0.5,15.7,1.4C343.7,239.7,343.4,244.9,340.6,248.9z"/>
	<path style="fill:#2B3B4E;" d="M307,285c-0.5,1.8-2,3.6-3.9,3.6c-1.3,0-2.8-0.6-3.7,0.2c-0.8,0.7-0.6,1.9-0.5,2.9
		c0.1,2.5-1,5.1-2.9,6.8c-1.1,0.9-2.3,1.6-3.3,2.6c-1.3,1.3-1.8,3.1-2.6,4.7c-3.7,7.7-12.2,11.8-20.3,14.6c-2.6,0.9-5.5,2-6.5,4.5
		c-0.8,2,0,4.5,1.9,5.7c1.8,1.1,4.5,0.7,5.9-0.9c0.3,2.5,0.6,5.2,2.2,7.2c1,1.2,2.4,2,3.5,3.1s2,2.7,1.5,4.2
		c-1.6,1.3-4.2,0.9-5.5-0.7c-1.1-1.4-1.1-3.3-2.2-4.7c-2-2.5-5.9-1.5-9.2-1.7c-5.4-0.4-9.8-5.9-9.1-11.2c0.1-0.9,0.3-1.9-0.2-2.6
		c-0.4-0.6-1.1-0.8-1.8-1.1c-2.1-0.9-3.8-2.5-4.7-4.6c-0.5-1.1-0.8-2.3-1.6-3.2c-0.6-0.7-1.5-1.1-2.3-1.4
		c2.5-33.8,24.4-62.1,54.7-74c0.2,2.2-0.2,4.5-2.1,5.4c-0.5,0.3-1.2,0.4-1.6,0.8c-0.8,0.7-0.7,2.1-0.1,3s1.6,1.5,2.6,2.1
		c5.1,3.2,9.5,8.5,9.3,14.5c-0.1,1.8-0.8,3.9-2.5,4.5c-1.3,0.5-2.8,0.1-4.1-0.3c-2-0.7-4.2-1.9-4.5-4c-0.2-1.3,0.4-2.6,0.5-3.9
		s-0.8-2.9-2.1-2.7c-1,0.2-1.5,1.4-1.5,2.5c0,1,0.3,2.1,0.1,3.1c-0.4,1.5-1.8,2.4-3.2,3.1c-1.4,0.8-2.8,1.5-4.2,2.3
		c-2,1.1-4,2.3-5.2,4.2c-1.2,1.9-1.2,4.8,0.7,6.1c0.9,0.7,2.2,0.8,3.1,1.5c1.5,1.1,1.6,3.2,2.3,4.9c0.7,1.7,3.1,3.1,4.3,1.7
		c0.4-0.4,0.5-0.9,0.6-1.5c0.4-2.4,0.1-4.8,0.2-7.3c0.1-2.4,0.7-5,2.6-6.6c1.8-1.6,5.2-1.5,6.3,0.7c0.2,0.4,0.4,0.9,0.7,1.3
		c1.4,1.9,4.8,0,6.8,1.3c1.1,0.7,1.4,2.1,1.6,3.3C307.1,281.2,307.4,283.1,307,285z"/>
	<path style="fill:#2B3B4E;" d="M326.5,364.5c0.2,2.3-2.5,3.5-4,5.3c-1.7,2.1-1.6,5-2.3,7.5c-1.7,6.4-8.2,10.1-12.4,15.3h-18.6
		c0-0.2,0.1-0.5,0.1-0.7c0.6-4.5,2-9.3,0.3-13.5c-1.6-3.9-5.4-6.4-8.2-9.6c-2.2-2.5-3.8-5.6-4.5-8.9c-0.4-1.5-0.5-3.2,0.3-4.5
		c0.6-0.9,1.5-1.4,2.1-2.3c1.5-2.2,0.1-5.4,1.5-7.6c0.7-1.1,2.1-1.7,3.4-2.1c9-2.8,19.7,0.6,25.3,8.2c0.6,0.8,1.2,1.7,2,2.2
		c2.2,1.4,5.7,0.4,7.2,2.5c0.6,0.8,0.7,1.8,1.2,2.6C321.6,361.5,326.2,361.6,326.5,364.5z"/>
</g>
<g>
	<path style="fill:#FFFFFF;" d="M112.5,345.3h5.3v13.2H115v-10.7h-2.5V345.3z"/>
	<path style="fill:#FFFFFF;" d="M124.7,356.1c0.8,0,1.5-0.3,1.9-0.8s0.7-1.3,0.8-2.2c-0.8,0.5-1.7,0.8-2.6,0.8
		c-1.2,0-2.3-0.4-3.1-1.2c-0.8-0.8-1.2-1.9-1.2-3.2c0-1.3,0.4-2.4,1.3-3.2c0.9-0.8,2-1.2,3.4-1.2c0.9,0,1.7,0.2,2.4,0.5
		c0.7,0.4,1.2,0.9,1.6,1.5c0.7,1.2,1.1,2.8,1.1,4.7c0,1.2-0.1,2.3-0.4,3.2c-0.3,0.9-0.7,1.6-1.2,2.2c-1,1.1-2.3,1.6-3.8,1.6
		c-0.6,0-1.2-0.1-1.8-0.3c-0.6-0.2-1-0.4-1.3-0.5c-0.3-0.2-0.6-0.4-1-0.7l1.5-2.1c0.1,0.1,0.2,0.2,0.3,0.3c0.1,0.1,0.4,0.3,0.8,0.5
		C123.9,356,124.3,356.1,124.7,356.1z M125.1,351.4c0.6,0,1.1-0.2,1.5-0.5c0.4-0.3,0.6-0.8,0.6-1.3s-0.2-1-0.6-1.4
		c-0.4-0.4-0.9-0.6-1.4-0.6c-0.6,0-1,0.2-1.4,0.5c-0.4,0.4-0.5,0.8-0.5,1.4s0.2,1,0.5,1.4C124,351.2,124.5,351.4,125.1,351.4z"/>
	<path style="fill:#FFFFFF;" d="M138.1,347.5c-0.8,0-1.5,0.3-1.9,0.8s-0.7,1.3-0.8,2.2c0.8-0.5,1.7-0.8,2.6-0.8
		c1.2,0,2.3,0.4,3.1,1.2c0.8,0.8,1.2,1.9,1.2,3.2c0,1.3-0.4,2.4-1.3,3.2c-0.9,0.8-2,1.2-3.4,1.2c-0.9,0-1.7-0.2-2.4-0.5
		c-0.7-0.4-1.2-0.9-1.6-1.5c-0.8-1.2-1.1-2.8-1.1-4.7c0-1.2,0.1-2.3,0.4-3.2c0.3-0.9,0.7-1.6,1.2-2.2c1-1.1,2.3-1.6,3.7-1.6
		c0.6,0,1.2,0.1,1.8,0.3c0.6,0.2,1,0.4,1.3,0.6s0.6,0.4,1,0.7l-1.4,2.1c-0.1-0.1-0.2-0.2-0.3-0.3c-0.1-0.1-0.4-0.3-0.9-0.5
		C138.9,347.6,138.5,347.5,138.1,347.5z M137.7,352.3c-0.6,0-1.1,0.2-1.5,0.5s-0.6,0.8-0.6,1.4s0.2,1,0.6,1.4
		c0.4,0.4,0.9,0.6,1.4,0.6c0.6,0,1-0.2,1.4-0.5c0.4-0.4,0.6-0.8,0.6-1.4s-0.2-1-0.5-1.4C138.7,352.5,138.3,352.3,137.7,352.3z"/>
	<path style="fill:#FFFFFF;" d="M152.8,345.3v2.6h-5.2v2.2c0.4-0.1,0.8-0.2,1.3-0.2c1.3,0,2.4,0.4,3.3,1.2c0.9,0.8,1.4,1.8,1.4,3.1
		c0,1.3-0.5,2.4-1.4,3.2s-2.1,1.3-3.5,1.3c-1.8,0-3.3-0.7-4.5-2l1.5-2.2c0.1,0.1,0.3,0.3,0.5,0.4c0.2,0.2,0.5,0.4,1,0.7
		c0.5,0.3,1,0.4,1.5,0.4s1-0.2,1.3-0.5c0.4-0.3,0.6-0.7,0.6-1.3c0-0.6-0.2-1-0.6-1.4c-0.4-0.3-1-0.5-1.6-0.5c-0.7,0-1.4,0.2-2.3,0.7
		l-1.2-1.3v-6.4L152.8,345.3L152.8,345.3z"/>
	<path style="fill:#FFFFFF;" d="M171.2,347.5c-0.8,0-1.5,0.3-1.9,0.8s-0.7,1.3-0.8,2.2c0.8-0.5,1.7-0.8,2.6-0.8
		c1.2,0,2.3,0.4,3.1,1.2c0.8,0.8,1.2,1.9,1.2,3.2c0,1.3-0.4,2.4-1.3,3.2c-0.9,0.8-2,1.2-3.4,1.2c-0.9,0-1.7-0.2-2.4-0.5
		c-0.7-0.4-1.2-0.9-1.6-1.5c-0.8-1.2-1.1-2.8-1.1-4.7c0-1.2,0.1-2.3,0.4-3.2c0.3-0.9,0.7-1.6,1.2-2.2c1-1.1,2.3-1.6,3.7-1.6
		c0.6,0,1.2,0.1,1.8,0.3c0.6,0.2,1,0.4,1.3,0.6s0.6,0.4,1,0.7l-1.4,2.1c-0.1-0.1-0.2-0.2-0.3-0.3c-0.1-0.1-0.4-0.3-0.9-0.5
		C172,347.6,171.6,347.5,171.2,347.5z M170.8,352.3c-0.6,0-1.1,0.2-1.5,0.5s-0.6,0.8-0.6,1.4s0.2,1,0.6,1.4c0.4,0.4,0.9,0.6,1.4,0.6
		c0.6,0,1-0.2,1.4-0.5c0.4-0.4,0.6-0.8,0.6-1.4s-0.2-1-0.5-1.4S171.4,352.3,170.8,352.3z"/>
	<path style="fill:#FFFFFF;" d="M186,345.3v2.6h-5.2v2.2c0.4-0.1,0.8-0.2,1.3-0.2c1.3,0,2.4,0.4,3.3,1.2c0.9,0.8,1.4,1.8,1.4,3.1
		c0,1.3-0.5,2.4-1.4,3.2c-1,0.9-2.1,1.3-3.5,1.3c-1.8,0-3.3-0.7-4.5-2l1.5-2.2c0.1,0.1,0.3,0.3,0.5,0.4c0.2,0.2,0.5,0.4,1,0.7
		c0.5,0.3,1,0.4,1.5,0.4s1-0.2,1.3-0.5c0.4-0.3,0.6-0.7,0.6-1.3c0-0.6-0.2-1-0.6-1.4c-0.4-0.3-1-0.5-1.6-0.5c-0.7,0-1.4,0.2-2.3,0.7
		l-1.2-1.3v-6.4L186,345.3L186,345.3z"/>
	<path style="fill:#FFFFFF;" d="M188.3,345.3h5.3v13.2h-2.8v-10.7h-2.5V345.3z"/>
	<path style="fill:#FFFFFF;" d="M202,347.5c-0.8,0-1.5,0.3-1.9,0.8s-0.7,1.3-0.8,2.2c0.8-0.5,1.7-0.8,2.6-0.8c1.2,0,2.3,0.4,3.1,1.2
		c0.8,0.8,1.2,1.9,1.2,3.2c0,1.3-0.4,2.4-1.3,3.2c-0.9,0.8-2,1.2-3.4,1.2c-0.9,0-1.7-0.2-2.4-0.5c-0.7-0.4-1.2-0.9-1.6-1.5
		c-0.8-1.2-1.1-2.8-1.1-4.7c0-1.2,0.1-2.3,0.4-3.2c0.3-0.9,0.7-1.6,1.2-2.2c1-1.1,2.3-1.6,3.7-1.6c0.6,0,1.2,0.1,1.8,0.3
		c0.6,0.2,1,0.4,1.3,0.6s0.6,0.4,1,0.7l-1.4,2.1c-0.1-0.1-0.2-0.2-0.3-0.3c-0.1-0.1-0.4-0.3-0.9-0.5
		C202.8,347.6,202.4,347.5,202,347.5z M201.6,352.3c-0.6,0-1.1,0.2-1.5,0.5s-0.6,0.8-0.6,1.4s0.2,1,0.6,1.4c0.4,0.4,0.9,0.6,1.4,0.6
		c0.6,0,1-0.2,1.4-0.5c0.4-0.4,0.6-0.8,0.6-1.4s-0.2-1-0.5-1.4C202.6,352.5,202.2,352.3,201.6,352.3z"/>
	<path style="fill:#FFFFFF;" d="M223.9,347.5c-0.8,0-1.5,0.3-1.9,0.8s-0.7,1.3-0.8,2.2c0.8-0.5,1.7-0.8,2.6-0.8
		c1.2,0,2.3,0.4,3.1,1.2c0.8,0.8,1.2,1.9,1.2,3.2c0,1.3-0.4,2.4-1.3,3.2c-0.9,0.8-2,1.2-3.4,1.2c-0.9,0-1.7-0.2-2.4-0.5
		c-0.7-0.4-1.2-0.9-1.6-1.5c-0.8-1.2-1.1-2.8-1.1-4.7c0-1.2,0.1-2.3,0.4-3.2c0.3-0.9,0.7-1.6,1.2-2.2c1-1.1,2.3-1.6,3.7-1.6
		c0.6,0,1.2,0.1,1.8,0.3c0.6,0.2,1,0.4,1.3,0.6s0.6,0.4,1,0.7l-1.4,2.1c-0.1-0.1-0.2-0.2-0.3-0.3c-0.1-0.1-0.4-0.3-0.9-0.5
		C224.7,347.6,224.3,347.5,223.9,347.5z M223.5,352.3c-0.6,0-1.1,0.2-1.5,0.5s-0.6,0.8-0.6,1.4s0.2,1,0.6,1.4
		c0.4,0.4,0.9,0.6,1.4,0.6c0.6,0,1-0.2,1.4-0.5c0.4-0.4,0.6-0.8,0.6-1.4s-0.2-1-0.5-1.4C224.5,352.5,224.1,352.3,223.5,352.3z"/>
	<path style="fill:#FFFFFF;" d="M238.6,345.3v2.6h-5.2v2.2c0.4-0.1,0.8-0.2,1.3-0.2c1.3,0,2.4,0.4,3.3,1.2c0.9,0.8,1.4,1.8,1.4,3.1
		c0,1.3-0.5,2.4-1.4,3.2s-2.1,1.3-3.5,1.3c-1.8,0-3.3-0.7-4.5-2l1.5-2.2c0.1,0.1,0.3,0.3,0.5,0.4c0.2,0.2,0.5,0.4,1,0.7
		c0.5,0.3,1,0.4,1.5,0.4s1-0.2,1.3-0.5c0.4-0.3,0.6-0.7,0.6-1.3c0-0.6-0.2-1-0.6-1.4c-0.4-0.3-1-0.5-1.6-0.5c-0.7,0-1.4,0.2-2.3,0.7
		l-1.2-1.3v-6.4L238.6,345.3L238.6,345.3z"/>
	<path style="fill:#FFFFFF;" d="M240.9,345.3h5.3v13.2h-2.8v-10.7h-2.5V345.3z"/>
	<path style="fill:#FFFFFF;" d="M254.6,347.5c-0.8,0-1.5,0.3-1.9,0.8s-0.7,1.3-0.8,2.2c0.8-0.5,1.7-0.8,2.6-0.8
		c1.2,0,2.3,0.4,3.1,1.2c0.8,0.8,1.2,1.9,1.2,3.2c0,1.3-0.4,2.4-1.3,3.2c-0.9,0.8-2,1.2-3.4,1.2c-0.9,0-1.7-0.2-2.4-0.5
		c-0.7-0.4-1.2-0.9-1.6-1.5c-0.8-1.2-1.1-2.8-1.1-4.7c0-1.2,0.1-2.3,0.4-3.2c0.3-0.9,0.7-1.6,1.2-2.2c1-1.1,2.3-1.6,3.7-1.6
		c0.6,0,1.2,0.1,1.8,0.3c0.6,0.2,1,0.4,1.3,0.6s0.6,0.4,1,0.7l-1.4,2.1c-0.1-0.1-0.2-0.2-0.3-0.3c-0.1-0.1-0.4-0.3-0.9-0.5
		C255.5,347.6,255,347.5,254.6,347.5z M254.2,352.3c-0.6,0-1.1,0.2-1.5,0.5s-0.6,0.8-0.6,1.4s0.2,1,0.6,1.4c0.4,0.4,0.9,0.6,1.4,0.6
		c0.6,0,1-0.2,1.4-0.5c0.4-0.4,0.6-0.8,0.6-1.4s-0.2-1-0.5-1.4C255.3,352.5,254.8,352.3,254.2,352.3z"/>
	<path style="fill:#FFFFFF;" d="M276.5,347.5c-0.8,0-1.5,0.3-1.9,0.8s-0.7,1.3-0.8,2.2c0.8-0.5,1.7-0.8,2.6-0.8
		c1.2,0,2.3,0.4,3.1,1.2c0.8,0.8,1.2,1.9,1.2,3.2c0,1.3-0.4,2.4-1.3,3.2c-0.9,0.8-2,1.2-3.4,1.2c-0.9,0-1.7-0.2-2.4-0.5
		c-0.7-0.4-1.2-0.9-1.6-1.5c-0.8-1.2-1.1-2.8-1.1-4.7c0-1.2,0.1-2.3,0.4-3.2c0.3-0.9,0.7-1.6,1.2-2.2c1-1.1,2.3-1.6,3.7-1.6
		c0.6,0,1.2,0.1,1.8,0.3c0.6,0.2,1,0.4,1.3,0.6s0.6,0.4,1,0.7l-1.4,2.1c-0.1-0.1-0.2-0.2-0.3-0.3c-0.1-0.1-0.4-0.3-0.9-0.5
		C277.3,347.6,276.9,347.5,276.5,347.5z M276.1,352.3c-0.6,0-1.1,0.2-1.5,0.5s-0.6,0.8-0.6,1.4s0.2,1,0.6,1.4s0.9,0.6,1.4,0.6
		c0.6,0,1-0.2,1.4-0.5c0.4-0.4,0.6-0.8,0.6-1.4s-0.2-1-0.5-1.4S276.7,352.3,276.1,352.3z"/>
	<path style="fill:#FFFFFF;" d="M282.3,345.3h5.3v13.2h-2.8v-10.7h-2.5V345.3z"/>
	<path style="fill:#FFFFFF;" d="M296,347.5c-0.8,0-1.5,0.3-1.9,0.8s-0.7,1.3-0.8,2.2c0.8-0.5,1.7-0.8,2.6-0.8c1.2,0,2.3,0.4,3.1,1.2
		c0.8,0.8,1.2,1.9,1.2,3.2c0,1.3-0.4,2.4-1.3,3.2c-0.9,0.8-2,1.2-3.4,1.2c-0.9,0-1.7-0.2-2.4-0.5c-0.7-0.4-1.2-0.9-1.6-1.5
		c-0.8-1.2-1.1-2.8-1.1-4.7c0-1.2,0.1-2.3,0.4-3.2c0.3-0.9,0.7-1.6,1.2-2.2c1-1.1,2.3-1.6,3.7-1.6c0.6,0,1.2,0.1,1.8,0.3
		c0.6,0.2,1,0.4,1.3,0.6s0.6,0.4,1,0.7l-1.4,2.1c-0.1-0.1-0.2-0.2-0.3-0.3c-0.1-0.1-0.4-0.3-0.9-0.5
		C296.9,347.6,296.4,347.5,296,347.5z M295.6,352.3c-0.6,0-1.1,0.2-1.5,0.5s-0.6,0.8-0.6,1.4s0.2,1,0.6,1.4s0.9,0.6,1.4,0.6
		c0.6,0,1-0.2,1.4-0.5c0.4-0.4,0.6-0.8,0.6-1.4s-0.2-1-0.5-1.4S296.2,352.3,295.6,352.3z"/>
	<path style="fill:#FFFFFF;" d="M307.2,352.8v-2.3h2.8v2.3h1.5v2.6H310v3.2h-2.8v-3.2h-5.3v-2.2l4.7-7.8h3.2l-4.5,7.5h1.9V352.8z"/>
	<path style="fill:#FFFFFF;" d="M122.4,248.7H114v-19.2h7.5c1.3,0,2.4,0.2,3.4,0.5c0.9,0.3,1.6,0.7,2.1,1.3c0.9,1,1.3,2.1,1.3,3.3
		c0,1.5-0.5,2.6-1.5,3.3c-0.3,0.3-0.6,0.4-0.7,0.5c-0.1,0.1-0.4,0.2-0.7,0.3c1.2,0.3,2.1,0.8,2.8,1.6s1.1,1.8,1.1,3
		c0,1.3-0.5,2.5-1.4,3.5C126.8,248.1,125,248.7,122.4,248.7z M118.3,237.3h2c1.2,0,2.1-0.1,2.6-0.4c0.6-0.3,0.9-0.8,0.9-1.7
		c0-0.8-0.3-1.4-0.8-1.7s-1.4-0.4-2.7-0.4h-2.1v4.2H118.3z M118.3,245.1h2.9c1.2,0,2.1-0.2,2.8-0.5c0.6-0.3,0.9-0.9,0.9-1.8
		c0-0.9-0.3-1.5-1-1.8c-0.6-0.3-1.7-0.4-3.1-0.4h-2.5C118.3,240.6,118.3,245.1,118.3,245.1z"/>
	<path style="fill:#FFFFFF;" d="M146.3,248.7l-1.8-4.1h-8l-1.8,4.1h-4.6l8.3-19.2h4.1l8.3,19.2H146.3z M140.5,235.3l-2.4,5.6h4.8
		L140.5,235.3z"/>
	<path style="fill:#FFFFFF;" d="M166.5,229.6h4.3v19.2h-4.3l-9.1-12v12h-4.3v-19.2h4l9.4,12.3L166.5,229.6L166.5,229.6z"/>
	<path style="fill:#FFFFFF;" d="M175.5,229.6h4.3v7.9l7.2-7.9h5.3l-7.6,8.5c0.7,0.9,1.9,2.6,3.6,5.1c1.8,2.5,3.1,4.4,4,5.6h-5
		l-5.6-7.6l-1.9,2.1v5.4h-4.3V229.6z"/>
</g>
<g>
</g>
<g>
</g>
<g>
</g>
<g>
</g>
<g>
</g>
<g>
</g>
<g>
</g>
<g>
</g>
<g>
</g>
<g>
</g>
<g>
</g>
<g>
</g>
<g>
</g>
<g>
</g>
<g>
</g>
</svg>
